<?xml version="1.0" encoding="utf-8"?>
<!-- Generator: Adobe Illustrator 19.0.0, SVG Export Plug-In . SVG Version: 6.00 Build 0)  -->
<svg version="1.1" id="Layer_1" xmlns="http://www.w3.org/2000/svg" xmlns:xlink="http://www.w3.org/1999/xlink" x="0px" y="0px"
	 viewBox="0 0 196.2 53.8" style="enable-background:new 0 0 196.2 53.8;" xml:space="preserve">
<style type="text/css">
	.st0{fill-rule:evenodd;clip-rule:evenodd;fill:#FFFFFF;}
</style>
<path class="st0" d="M16.1,27.2c0-14.7,5.6-26.7,12.5-26.7c3.5,0,6.6,3,8.9,8L35.2,9C34.5,8.4,33.8,8,33,8c-2,0-3.6,2.4-4.7,6
	c-1,3.3-1.7,8-1.7,13.1c0,9.9,2.4,18,5.3,18c2.1,0,4-4.3,4.8-10.6l4.1-1.1c-1.3,11.7-6.3,20.3-12.1,20.3
	C21.7,53.8,16.1,41.9,16.1,27.2"/>
<path class="st0" d="M0.2,21.9c-1.6-6.3,6-13.8,17.7-18.3L18.5,6C11.7,8.9,7.3,13,8.2,16.4c1.1,4.4,10.4,5.8,20.8,3.2
	C39.4,17.1,47,11.4,45.9,7c-0.5-1.9-2.6-3.3-5.6-4l-0.8-3C48,0.4,54.3,3.3,55.5,8.1c1.8,7.4-9,16.5-24.3,20.3
	C15.9,32.3,2.1,29.4,0.2,21.9"/>
<path class="st0" d="M195.6,52.5H193v-5.4l-3.9,5.4h-1.5l-3.6-5.4v5.4h-2v-9.4h2.1l4.7,6.8l4.8-6.8h1.8V52.5z M180.6,47.6
	c0-1.3-0.4-2.4-1.3-3.3c-0.9-0.9-2.1-1.3-3.8-1.3c-1.7,0-3,0.4-3.9,1.3c-0.9,0.9-1.3,2-1.3,3.3v0.5c0,1.5,0.5,2.6,1.4,3.3
	c0.9,0.8,2.2,1.2,3.7,1.2c1.5,0,2.8-0.4,3.7-1.2c1-0.8,1.4-1.9,1.4-3.4V47.6z M177.2,50.5c-0.4,0.5-1,0.8-1.8,0.8
	c-1,0-1.6-0.2-1.9-0.7c-0.3-0.5-0.4-1.4-0.4-2.7v-0.2c0-1.3,0.1-2.2,0.5-2.7c0.3-0.5,0.9-0.7,1.8-0.7c1,0,1.6,0.3,1.9,0.8
	c0.3,0.6,0.4,1.4,0.4,2.6V48C177.7,49.2,177.5,50,177.2,50.5 M169,52.2c-0.2,0.1-0.5,0.2-1.1,0.3c-0.5,0.1-1.1,0.1-1.8,0.1
	c-1.7,0-3.1-0.4-4.1-1.2c-1.1-0.8-1.6-1.9-1.6-3.4v-0.4c0-1.4,0.5-2.5,1.6-3.4c1.1-0.9,2.4-1.3,4.1-1.3c0.7,0,1.3,0,1.8,0.1
	c0.5,0.1,0.8,0.2,1.1,0.3v1.5c-0.2-0.1-0.6-0.2-1-0.2c-0.4-0.1-0.9-0.1-1.4-0.1c-1,0-1.8,0.3-2.4,0.9c-0.6,0.6-0.8,1.4-0.8,2.5v0.1
	c0,1.1,0.3,1.9,0.8,2.5c0.5,0.5,1.3,0.8,2.2,0.8c0.6,0,1.2,0,1.6-0.1c0.4-0.1,0.8-0.2,1.1-0.3V52.2z M159.2,52.5h-8v-9.4h7.7v1.4
	h-4.8V47h3.7v1.4h-3.7v2.6h5.2V52.5z M149.3,52.5h-7.5v-9.4h2.8v8h4.7V52.5z M140.1,52.5h-8v-9.4h7.7v1.4h-4.8V47h3.7v1.4h-3.7v2.6
	h5.2V52.5z M130.8,44.5h-2.7v8h-2.8v-8h-2.8v-1.4h8.3V44.5z M110.6,48.9l1.4-3.5l1.6,3.5H110.6z M113.7,43.1H111l-4.2,9.4h2.3
	l0.9-2.2h4.2l0.9,2.2h2.9L113.7,43.1z M105.7,52.5h-1.2l-6.3-5.9v5.9h-2v-9.4h1.5l6,5.6v-5.6h2V52.5z M93.4,52.5h-2.8v-9.4h2.8V52.5
	z M87.6,52.5h-2.8v-4h-3.2v4h-2.8v-9.4h2.8V47h3.2v-3.9h2.8V52.5z M76.8,52.2c-0.2,0.1-0.5,0.2-1.1,0.3c-0.5,0.1-1.1,0.1-1.8,0.1
	c-1.7,0-3.1-0.4-4.1-1.2c-1.1-0.8-1.6-1.9-1.6-3.4v-0.4c0-1.4,0.5-2.5,1.6-3.4C71,43.4,72.3,43,74,43c0.7,0,1.3,0,1.8,0.1
	c0.5,0.1,0.8,0.2,1.1,0.3v1.5c-0.2-0.1-0.6-0.2-1-0.2c-0.4-0.1-0.9-0.1-1.4-0.1c-1,0-1.8,0.3-2.4,0.9c-0.6,0.6-0.9,1.4-0.9,2.5v0.1
	c0,1.1,0.3,1.9,0.8,2.5c0.5,0.5,1.3,0.8,2.2,0.8c0.6,0,1.2,0,1.6-0.1c0.4-0.1,0.8-0.2,1.1-0.3V52.2z M142.9,24.6c0,0.1,0,0.2,0,0.3
	c0,0.1-0.3,0.3-0.3,0.5c-0.1,0-0.7,0.1-0.8,0.2c-0.4,0-1.5,0.7-1.6,0.7c0,0.1-0.2,0.1-0.3,0.2c0,0,0,0-0.1,0c0-0.2,0.2-0.7,0.2-0.9
	c0-0.2-0.1-0.3-0.1-0.5c0-0.2,0.1-0.3,0.2-0.5c0-0.2,0-0.3,0-0.5c0.1-0.4,0.3-0.8,0.4-1.2l0.2-0.5c0-0.1,0,0,0,0
	c0.3,0,0.6-0.2,0.9-0.3l0.7-0.2c0.1,0,0,0,0,0c0.2,0.1,0.5,0.1,0.6,0.3C143.7,22.6,143,24.1,142.9,24.6 M149.3,13.9
	c0-0.4,0.9-0.7,0.9-0.7c0.4-0.2,0.8-0.3,1.3-0.4c0,0,0.3-0.1,0.5-0.3c0.2-0.2,1.4-0.3,1.4-0.3c0.5,0.2,1.1,0.3,1.6,0.4l0,0.2
	c0.1,0.2,0.1,0.3,0.3,0.4v0.3c0,0.3-0.3,0.4-0.4,0.7c-0.1,0-0.3-0.1-0.5,0l-0.1,0c-0.9,0.4-1.7,1.2-2.6,1.4l-0.8,0.1
	c-0.1,0-0.3,0-0.3,0c-0.4,0.1-1.5,0.1-1.6-0.5C148.8,15,149,14,149.3,13.9 M153.6,20.4c-0.1,0.1-0.2,0.3-0.3,0.5
	c-0.2,0.4-1.7,1-1.7,1c-0.6,0.4-1.5,0.9-2.2,0.3c0,0-0.2-0.4-0.2-0.7c0.1-0.2,0.1-0.4,0.1-0.6c-0.1-0.3,0-0.6,0-0.7l0.5-0.5
	c0.4-0.2,0.7-0.5,1.1-0.6c0.6-0.3,2.3-0.9,2.7-0.7c0,0,0.1,0.1,0.1,0.1c0.1,0.1,0.1,0.3,0.1,0.4C153.9,19.2,153.6,19.8,153.6,20.4
	 M163,32.1v-0.3c-0.3-0.2-0.2-0.2-0.3,0v-0.3c0,0,0-0.1-0.1,0v0.1c-0.1,0,0,0-0.1,0l0-0.2l0,0.1l-0.1-0.1c0,0,0-0.1,0,0l0.2-0.1
	l0-0.1c-0.1,0.1-0.2,0.2-0.3,0.3l0.1-0.3h0.2c0,0,0.1,0,0-0.1c-0.4,0-0.2-0.5-0.4-0.1l-0.1,0.1c0,0,0-0.1-0.1,0c0-0.1,0.1-0.2,0-0.3
	c-0.1,0-0.2,0-0.3-0.1c0,0,0.2-0.1,0.2-0.1l-0.1-0.1v-0.1c0,0,0.1,0,0,0l0.2,0.1c0,0,0-0.1,0,0l-0.2-0.2c0,0-0.1,0-0.1,0l-0.2-0.2
	c0,0-0.1,0,0,0l-0.2,0c0,0,0-0.1,0-0.1l0,0.2l0.1,0c0,0.1,0.1,0.2,0,0.3h-0.1l-0.2-0.4l-0.1,0c0,0,0,0-0.1,0l0.2-0.2h0.1
	c-0.2-0.1-0.6-0.1-0.6,0.1l-0.2,0.1c0,0-0.1,0.1-0.1,0.1l-0.6,0.4c-0.1,0-1.1,0.3-1.2,0.4c-0.6,0-3.6,0.7-3.8,0.9l-0.6,0.1
	c-1.1,0-2.6,0.2-3.4,0.4c-0.3-0.1-0.6-0.3-0.9-0.3c-0.2,0-0.3-0.3-0.3-0.5c-1-2-0.7-1.7,0.4-3.1c0.1-0.2,0.3-0.4,0.5-0.5
	c0.7-0.4,1.2,0,1.5-0.3c0.2-0.1,0.5-0.1,0.8-0.1c0.1-0.1,0.3-0.2,0.4-0.2c0.3-0.1,0.9,0,1.2-0.2c0.1,0,0.4-0.1,0.5-0.1
	c0.8-0.1,1.6-0.1,2.4-0.3c0.2,0,0.5-0.5,0.6-0.7c0-0.2,0.3-0.5,0.4-0.7c0.2-0.3,0.5-0.4,0.6-0.8c0-0.2,0-0.5,0-0.5
	c0-0.2,0.1-0.4,0.1-0.7c0.1-0.5-1.1-1.9-1.1-2.3c0-0.2,1-2.5,1-2.5c0.1-0.2,0.2-1.1,0.4-1.2c0-0.1,0.2-0.6,0.2-0.7
	c0-0.6,0.4-1,0.3-1.5c0-0.2-0.2-0.4-0.1-0.6c0-0.2,0.1-0.3,0.1-0.5c0-0.4-0.4-0.6-0.4-1l-0.6-0.8c-0.6-0.9,0-1.5-1.4-2
	c0,0.1-0.2,0.1-0.2,0.1c-0.6,0-0.9-0.7-1.8-0.5c-0.4,0.1-0.7-0.2-1.1-0.2c-0.3,0-3.5,1.7-4,2c-0.1,0.1-0.5,0-0.6,0c0,0,0-0.1,0,0
	c0-1.9,1.4-3.7-1-4.8c-0.7-0.3-0.9-0.5-1.7-0.5c0,0.3-0.1,0.8-0.1,1.2c-0.3,0.4-0.6,0.9-0.7,1.4c-0.2,0.8-0.5,3.8-0.8,4.1
	c-0.6,0.7-0.5,0.4-1.2,0.8c-0.1,0.1-0.7,0.5-0.8,0.5c-0.6,0.5-1.2,0.7-1.8,1.3c0,0.1-0.1,0,0,0.1c0.7,0.1,0.8,0,1.1,0.6
	c0.6,0,1.1-0.5,1.7-0.4c0,0.3,0.1,0.4,0.1,0.7c0,0,0.1,0.3,0.1,0.3c0,0.2-0.4,0.8-0.5,1c-0.1,0.7-2.4,2.4-2.9,2.7
	c-0.2-0.4,0.1-2.4,0.2-2.8c-0.1-0.2,0-0.4,0-0.6c0-0.2-0.8-1.1-0.9-1.6c0,0-0.1,0,0,0c-1-0.2-0.3-1-0.9-1.2c-0.2,0-0.4,1.1-0.6,1.3
	c-0.1,0.1-0.1,0.3-0.1,0.4l-0.1,0.1c0,0.6-0.8,1.2-0.9,1.5c-0.2,0.9-0.1,1.7,0,2.5c0.1,1.2-0.3,2.8-0.4,4c-0.1,1.2-1,1.5-0.4,2.8
	c0.2,0.4,1.4,1,1.8,1.1c0.3,0,0.5,0.8,0.8,1c0.4,0.2,0.7,0.6,1.1,0.8c0.4,0.2,1.5,0.1,1.8,0.5c0.4,0.5,0.7,4.3,1.8,4.6
	c0,0,0,0.1,0,0c0,0.3,0.7,0.6,0.9,0.8c1.3,0.8,2,0.9,3.5,1.1c0.5,0,1.1,0.2,1.6,0.1c0.3,0.3,3.3,0.1,3.5-0.3l0.9-0.2
	c0,0,0.7-0.1,0.7-0.1c0.2,0,1.8-0.4,1.7-0.6c0,0,0.1,0,0.2,0c0.4-0.1,3.1-0.9,3.1-0.8c0.1,0.1,0.7-0.3,0.8-0.3l-0.2,0l0.1-0.1
	l0.1-0.2h0.1l0-0.2h0.1l0.1,0.1c0,0,0.1-0.1,0.1-0.1c0,0,0-0.1-0.1-0.1l0.1-0.2l-0.2,0c0-0.4,0.5-0.5,0.6-0.8h0.1l0,0.2l0.3-0.3h0.1
	c0,0,0,0.1,0,0l-0.1,0.1c0.1,0-0.1,0.2,0.1,0.1l0.1-0.2l0.1-0.1l0,0.1L163,32.1L163,32.1z M79.6,10.7v-0.6C80.4,9.3,80.2,9,80.1,8
	c0-0.5,0.3-0.8,0.3-1.2c0-0.5-0.1-2.8-0.2-3.4c-0.1-0.3-0.3-0.6-0.3-0.9l0.3,0c-0.1-0.4-0.2-0.7-0.5-1.1L80,1.2
	c3.9,0.2,3.9,4.2,6,5.8c0.2,0.2,0.4,0.5,0.7,0.5c0.2,0,0.3-0.2,0.5-0.2c0.2,0.2,0.4,0.1,0.5,0.2c0.2,0.1,0.2,0.3,0.4,0.3l0.1-0.3
	c0.3,0,0.5-0.2,0.7-0.1c0.3,0.1,0.5,0.1,0.8,0.1C89.4,7,88,7.8,88,7.1C88.9,7,89.7,7,90.6,7c-0.1,0.2-0.4,0.5-0.6,0.5
	c0,0.1,0.1,0.3,0.2,0.4L89.9,8l0.3,0.1c0.2-0.4,0.2-0.3,0.7-0.3l0-0.2h0.1l0.1,0.2h0.1c0-0.3,0.4-0.3,0.6-0.3c0,0.3-0.2,0.5-0.2,0.8
	c0.1,0,0.7,0,0.7,0.2h0.1l0.3-0.3c0-0.1-0.1-0.1-0.2-0.1l0.1-0.2c0.2,0,0.6,0.2,0.6-0.2c0.3,0.1,0.9,0.4,1.2,0.5v0.1
	c-0.5-0.1-1.1-0.4-1.1,0.4C93,8.7,93,8.6,93,8.3c0,0-0.1-0.1-0.1-0.1c-0.4,1.3-3.5,1.6-4.4,2.7c-0.1,0.1,0,0.5,0,0.7
	c0,0.2-0.2,0.3-0.2,0.5c0,0.2,0.1,0.5,0.1,0.8c0,0.1,0,0.3,0,0.4c0,0.3,0.1,1.7,0.2,1.9l0.2,0.1c0.4-0.4,1.4-0.3,1.7-0.5
	c0.3-0.1,0.7-0.5,1-0.6c0.4-1.1,1.7-2,2-2.9c0-0.1-0.1-0.2-0.1-0.4c0.6-0.5,1.3-1.9,1.1-2.7c-0.2-0.6-0.9-0.7-1.4-0.9l0.1-0.1
	c1.2,0.3,2.1,0.6,1.9,2.1c-0.2,1.6-0.6,2.7-0.5,4.4c0,0.1-0.1,0.2-0.2,0.3c-0.1,0.2-0.2,0.4-0.3,0.6c-0.3,0.9-0.4,1.9-0.5,2.8
	c-0.1,0.5-0.3,2.9-0.9,2.9c0.1,1.1-2.4,1.2-3.2,1.5c-0.7,0.2-1.7,3.3-1.9,4.1c-0.1,0.3-0.8,0.8-0.8,1.1c-0.1,1.4,0,3.2-0.4,4.6
	c-0.3,0.8-0.6,1.5-1,2.2c-0.1,0.1,0,0.6,0,0.8c-0.1,0.7-0.3,1.4-0.3,2.1c0,0.2,0.2,1,0.1,1.2c0,0.2-0.5,0.8-0.6,0.8
	c0-0.1-0.1-0.3-0.2-0.3c-0.1,0.5,0.1,0.9,0,1.4L84.3,40L84,39.8h-0.1c0,0.2,0,1.4-0.3,1.4c-0.1-0.2-0.1-0.4-0.1-0.6h-0.2v-0.1
	l0.2-0.2c0,0-0.5,0.4-0.6,0.4c-0.3-0.1-0.3-2.1,0.3-2.5l0.2,0.2v-0.3l-0.7,0c-0.1-0.4-0.5-2.6-0.8-2.6c-0.3,0.5-0.5,1.6,0.1,1.8
	c0.1,0.2,0,0.4,0,0.6c0,0-0.1,0-0.1,0l-0.1-0.5l-0.3,0c0,0.4,0.1,0.7,0.1,1.1l-0.2,0c-0.1-0.4,0-0.7-0.1-1.1c-0.3-1-0.5-1.1-0.4-2.3
	c0-0.2,0.2-0.3,0.2-0.4c0-0.2-0.3-1-0.3-1.1c0.1-1.1,0-2.3-0.1-3.4c0-0.5-0.3-1-0.4-1.4c-0.1-1.6,0.6-2-0.4-3.8
	c-1.3,0.6-3,0.7-4.5,1.2c-0.4,0.1-0.6,0.4-1,0.5c-0.2,0-1.9-0.2-2-0.3c-0.4-0.3-0.5-1.6-0.6-2.2c-1-0.1-1.9,1.1-2.4-0.2
	c0-0.1-0.2-0.2-0.2-0.3l-0.2,0.1c0-0.1-0.5-1.1-0.5-1.1c0.1-0.1-0.1-0.4-0.1-0.4c-0.8-0.4-0.2-2.9-0.2-3.4c0,0,0.5-1,0.5-1.2
	c0.5-0.3,0.4-1.1,0.4-1.3l0.3-0.2c0-0.3,0.7-1.3,0.6-1.5c0,0,0.5-1.2,0.5-1.3c0,0,0.1-0.2,0.1-0.2c0.1-0.1,0.8-2,0.8-2.2l0.2,0
	c0-0.2,0.4-1.1,0.6-1.1c0.3,0,0.7,1.7,0.7,1.9c0,0,0.3,0.5,0.3,0.5c0.3,0.5,0.2,1,0,1.5l0.2,0l0-0.1l0.1,0l0.1,0
	c0.6-0.1,0.9-0.6,1.4-0.8c0.5-0.2,1-0.4,1.5-0.7c0.2-0.1,1.1-0.4,1.1-0.4C77.6,11.4,79.2,10.9,79.6,10.7 M79.6,13.9
	c-0.5,1.4-3.2,1.7-4.1,2.4c-0.8,0.6-1.1,1.3-1.8,2.1c-0.1,0.1,0.1,0.2-0.3,0.5l-0.2,0.9l-0.4,0.7c-0.3,0.1-0.8,1.1-0.6,1.4
	c-0.3,0.3-0.4,0.4-0.2,0.8l0.4-0.2c0.8,0.1,1.6-1.6,3.2-1.8c1.5-0.2,2.1-0.3,3.4-1.1c0.3-0.6,1.3-1.5,1.5-2c0.2-0.8-0.4-1.5-0.4-2.3
	C80.1,15.6,79.8,14.5,79.6,13.9 M82,39.4h-0.1c0,0,0,0,0,0c-0.1-0.1,0.1-0.3,0.1-0.4c-0.2,0-0.3-0.1-0.5-0.2c-0.1,0.4,0,0.6,0.2,0.9
	c0.1,0.2,0.1,0.4,0.1,0.6h0.1c0.1-0.1,0.1-0.2,0.2-0.3V39.4z M84.7,39c0,0.5-0.1,0.9-0.1,1.4C84.9,40.4,85,39.2,84.7,39 M82.3,39.3
	c-0.2,0.3-0.1,1,0,1.4l0.1,0c0.1,0,0-0.1,0.1-0.1C82.4,40.2,82.5,39.6,82.3,39.3 M92.1,7.6V8l0.1,0C92.3,8,92.2,7.6,92.1,7.6
	 M91.4,7.2c0.1,0,0.1-0.1,0.2-0.1l0.3,0.1c0.2,0,0.5,0,0.8,0h0.1c-0.6,0-1.1-0.2-1.7-0.2l-0.3,0.2v0.1c0.1,0,0.1,0.1,0.2,0.1
	L91.4,7.2z M92.3,7.6v0.1h0.5C92.6,7.7,92.5,7.6,92.3,7.6L92.3,7.6z M120,20.4C120,20.4,120,20.4,120,20.4c0,0.1-0.2,0.5-0.2,0.5
	c0,0.2-0.1,0.5-0.2,0.5c0,0-0.2,0.1-0.3,0.2c0.1,0-0.1,0.2-0.1,0.2c0,0.1,0.1,0.1,0.1,0.1c0.4,0.1,0.8-0.2,0.9-0.2l0.6-0.2l0.6-0.1
	c0.2,0,0.3-0.1,0.5-0.1c0,0.1,0.2,0,0.2,0c0.5,0.2,0.9-0.2,1.1-0.5c-0.1-0.3,0.1-0.7,0.1-0.9c0-0.2-0.1-0.4-0.1-0.5
	c0-0.2,0-0.3-0.2-0.4c0-0.1-0.2-0.1-0.2-0.1c0,0-0.2-0.1-0.3-0.1c-0.2-0.1-0.5-0.2-0.7-0.1c0,0-0.1-0.1-0.1-0.1
	c-0.2-0.2-0.5-0.2-0.7-0.3l-0.5-0.2c0.1,0.3,0.2,0.5,0.2,0.8c0,0.6-0.3,0.9-0.6,1.3C120.2,20.2,120.2,20.3,120,20.4 M106.6,15.3
	c0-0.1,0-0.7,0-0.7c0-0.2-0.1-0.4-0.1-0.6c-0.3,0-0.2-1.4-0.2-1.6c0-0.1-0.1-0.4-0.1-0.4c0,0,0-0.3-0.1-0.3c0,0-0.1-0.2-0.1-0.3
	c-0.1,0-0.5-0.6-0.5-0.9c-0.1-0.4-0.1-0.7-0.3-1c-0.1,0-0.2-0.1-0.3-0.2c0,0.3,0,0.3-0.2,0.5c0,0.3-0.2,0.7-0.3,0.9
	c-0.1,0.3-0.2,0.7-0.1,1.1l0.1,0.5c0,0.1,0,0.3,0,0.4c-0.1,0,0,0.2,0,0.3c0,0.3,0,0.5,0,0.8c0,0.3,0.2,0.6,0.1,0.9
	c0,0.3-0.2,0.4-0.2,0.7c0,0.3,0,0.7-0.1,1.1l-0.2,0.5c-0.1,0.2-0.2,0.5-0.2,0.8c0,0.2-0.1,0.5-0.1,0.5c0,0.1,0.1,0.1,0.1,0.2
	c0,0.4,0,0.8,0,1.1c0,0.2-0.1,0.4-0.1,0.6l0,0.5c0,0.3-0.1,0.7-0.1,1c0,0.2-0.1,0.5-0.2,0.7c0,0.1-0.1,0.7-0.1,0.8
	c0,0.4-0.1,1.3,0,1.3c-0.1,0,0,0-0.1,0c0,0.1-0.1,0.6-0.1,0.6c-0.1,0.2-0.2,0.4-0.2,0.6c-0.1,0.3-0.1,1,0.1,1.2c0,0,0.1,0.7,0.1,0.7
	c-0.1,0.5,0.3,1.2-0.1,1.6c0,0.3-0.1,0.5-0.1,0.8c0,1.1,0.2,2.1,1,2.9c0.2,0.2,0.4,0.4,0.7,0.2c0.1-0.1,0.2-0.2,0.3-0.3
	c0.6-0.9,0.4-2.1,0.2-3.2c0-0.2-0.1-0.3-0.1-0.5c0-0.6,0.2-1,0.2-1.6c0-0.3,0-0.7,0.1-1c-0.5-0.3-0.3-1.5-0.1-2
	c0.1-0.3,0.1-0.6,0-0.9c0-0.2,0.2-1.1,0.2-1.1c0-0.3,0.2-0.9,0.2-0.9c0-0.1,0.3-1.1,0.3-1.1c0-0.1,0.2-1,0.3-1.3
	c0-0.2,0.3-0.7,0.3-0.8c0-0.2,0.1-0.5,0.2-0.6c0.1,0,0-0.2,0-0.3c-0.1-0.1-0.1-0.3-0.2-0.4l0-0.6c0-0.1,0.1-0.2,0.2-0.4
	C106.6,16.1,106.6,15.5,106.6,15.3L106.6,15.3z M121.6,28.8v-0.2h-0.3c-0.6,0.4-2.3,0.6-2.4,0.9l-0.3,0c-0.3,0-0.7,0.4-1,0.4
	c-0.3,0.1-0.7,0-1,0.1c-0.2,0-1.1,0.4-1.5,0.6c-0.3,0-1.3,0.3-1.5,0.5l-0.4,0.1c-0.3-0.2-1.7,0.5-2,0.7c0,0-0.4-0.1-0.5-0.1
	c-0.6,0-1.1,0.4-1.6,0.4c-0.4,0-0.8-0.1-1.2,0c-0.2,0-0.4,0.2-0.6,0.1c-0.3,0-0.3-0.2-0.7-0.1c0.2,0.4,1.2,2.7,1.5,2.8
	c0.2,0,0.5,0,0.6,0.1c0.4-0.1,1.6-0.3,1.8-0.6l0.2,0c0.2-0.1,1-0.4,1.1-0.5c0.3,0,1.8-0.5,2.2-0.7c0.2,0,0.4-0.1,0.5-0.2
	c0-0.2,0.6-0.3,0.8-0.4c0.3-0.1,0.6-0.3,0.9-0.5c1-0.5,1.3-1,2.1-1.5c0.9-0.6,2-1,2.9-1.5C121.3,29.1,121.5,28.9,121.6,28.8
	 M106.8,13.4c0,0.1,0.1,0,0.2,0c0,0.2,1.2,0.5,1.3,0.7c0.1,0.1,0,0.5,0,0.7c0,0.2,0.2,0.5,0.4,0.6c0.2,0.1,0.3,0,0.5,0
	c0.3,0,0.6,0,0.8,0l0.5,0.1c0.2,0,0.5-0.1,0.7,0c0.1,0,0.2,0.1,0.2,0.2c0.1,0.2,0.1,0.4,0.1,0.6c0,0.2,0.1,0.3,0.1,0.6
	c0,0.3,0,0.5-0.1,0.8c-0.1,0.2-0.2,0.3-0.2,0.5c-0.1,0-0.5,0.1-0.6,0.1l-0.4,0.3c-0.4,0.2-0.9,0.3-1.3,0.5c-0.2,0.1-0.4,0.3-0.5,0.4
	c-0.3,0.2-0.6,0.3-0.8,0.6c-0.1,0.1-0.3,0.3-0.4,0.4c0,0.1,0,0.1,0.1,0.2v0.1c-0.1,0-0.4,0.3-0.4,0.4c0,0,0.1,0.3,0.1,0.4
	c0,0,0.1,0,0.1,0.1c0.1,0.4,0.8,0.6,1.2,0.6c0,0.1,0.5,0.9,0.7,0.9c0,0,0.5,0.1,0.6,0.1c0,0,0.3,0,0.4,0c0,0.2,0,0.3-0.1,0.3
	c0,0.1,0,0.3,0,0.3c0-0.1,0,0.5-0.2,0.7c0,0-0.1,0.4-0.2,0.5c-0.1,0-0.1,0.2-0.1,0.2c-0.4,0.1-0.9,0.9-0.9,0.9
	c0,0.2-0.3,0.4-0.3,0.5c-0.1,0,0,0.2,0,0.2c0,0.2-0.3,0.8-0.4,0.9V28v0.1c0.1,0,0.2,0.6,0.3,0.8c0.1,0.3,0.5,0.7,0.5,0.7
	c0,0.2,0.3,0.2,0.4,0.2c0.3,0.1,0.8,0.1,1.2,0c0.2-0.1,0.5-0.1,0.7-0.2c0.3-0.1,0.5-0.1,0.7-0.2l0.8-0.4c0.5-0.2,1-0.2,1.4-0.5
	c0.1,0,0.3-0.2,0.3-0.3c0.2,0,1-0.6,1-0.6c0.1,0,0.5-0.2,0.6-0.3c0,0,0.5-0.2,0.6-0.3c0.2-0.1,0.3-0.1,0.5-0.1l0.5-0.3
	c0.2-0.1,0.4-0.2,0.7-0.2c0-0.1,0.9-0.6,0.9-0.6c0.1-0.1,0.5-0.4,0.7-0.6c0.2-0.1,0.4-0.4,0.5-0.6c0-0.1,0-0.2,0.1-0.3
	c0,0,0.1-0.1,0.1-0.1c0,0-0.4,0-0.4,0c-0.4,0,0.1-0.8,0.2-0.9c-0.3,0-0.6,0-0.9,0c-0.2,0-0.5-0.2-0.5-0.2c-0.5,0-1,0-1.5,0.1
	c0,0,0.1-0.5,0.1-0.6c-0.1,0,0.1-0.7,0.2-1c-0.2,0-0.1-0.2-0.1-0.3c0,0-0.1,0-0.1,0c0,0,0.5-0.4,0.7-0.2c0,0,0.7-1.1,0.8-1.2
	c0.1-0.1,0.8-0.7,0.9-0.9c0-0.1,0.1-0.2,0.1-0.3c0.1-0.1,0.2-0.3,0.2-0.4c0-0.1,0-0.2,0-0.3l0-0.2c0-0.2,0-0.4-0.1-0.5
	c-0.1-0.3-0.4-0.4-0.6-0.6l-1-0.7l-0.4-0.2l-0.1-0.1c-0.1-0.1-0.3-0.2-0.4-0.2c0,0,0.1-0.1,0.1-0.2c0-0.3,0.2-0.8,0.3-1L118,14
	c0-0.1,0.8-0.8,0.8-0.8c0.3,0,0.7-1,0.7-1c0,0,0.3-0.5,0.4-0.5c0.2-0.3,0.1-0.6,0.1-0.9c0-0.1,0.1-0.2,0.1-0.3
	c0.1-0.2,0-0.4-0.1-0.5c-0.1-0.3-0.4-0.6-0.5-0.9c-0.1-0.1-0.3-0.4-0.3-0.3c0-0.3-0.4-0.4-0.7-0.5c-0.3,0.3-1.4,0.3-1.9,0.5
	c-0.2,0-1,0.1-1.1,0.2c-0.1,0-0.5,0.2-0.8,0.2c0,0.1-0.6,0.2-0.9,0.5c-0.3,0-0.6,0.1-0.9,0.2c-0.1,0-0.3,0.1-0.3,0.1
	c0,0-0.4,0.1-0.4,0.1c0,0-0.3,0.1-0.3,0.1c-0.2,0.1-0.7,0.3-0.7,0.3c-0.2,0-0.8,0.3-0.8,0.3c0,0-0.6,0.4-0.7,0.4
	c-0.1,0-0.4,0.1-0.4,0.1c0,0-0.1,0.1-0.2,0.1c0,0-0.1,0-0.1,0c-0.1,0-0.2,0.3-0.2,0.3c-0.2,0-0.4,0.2-0.5,0.3
	c-0.1,0-0.5,0.3-0.6,0.4C107.1,12.6,106.6,12.8,106.8,13.4 M127.8,12.4c0-0.5,0-0.6,0.2-1c-0.1-0.5,0-1.2,0.1-1.7
	c-0.8,0,0.1-3.2,0-3.6c-0.1-0.7-1.7-2.8-2.3-3.1c-0.2-0.1-1-0.3-1.2-0.3c-1.4,0.4-4.3,0.2-5.2,1.2c-0.5-0.2-1,0.1-1.5,0.1L117.9,4
	c-0.5,0-2.2,0.3-2.4,0.4l-0.3,0c-0.7,0.4-2,0.4-2.6,1c-0.1,0.1-0.9,0.3-1.2,0.5c-0.5,0.3-1,0.9-1.6,0.7c-1.1,0.4-2.3,0.6-3.3,1.2
	c0,0.2,1.3,0.1,1.3,0.8c0.2,0,0.4,0.2,0.7,0.2c0.7,0.1,2,0,2.6-0.4c0.2,0.1,1.3-0.4,1.4-0.4c0.3-0.3,0.4-0.3,0.8-0.3
	c0.1-0.1,0.8-0.4,0.8-0.4c0.3,0,0.7-0.2,0.9-0.2c0.7-0.2,2.1-0.9,2.7-0.9c0.5,0,0.8-0.1,1.2-0.2c0.1,0,0.5-0.2,0.6-0.2
	c0.6-0.3,2.2,0.1,2.8,0c0.5-0.1,0.8,0.1,1.2,0.3l0.4,0.6c0.2,0,0.4,0.8,0.5,0.9c-0.1,0.3-0.2,1.4,0,1.6c-0.3,0.8-0.3,5.5-0.6,6
	c0,0.5-0.2,2.1-0.2,2.1c0.2,0.9,0.2,2.3,0.2,2.8c0,0.5-0.3,1-0.3,1.5c0,0.5,0.3,1.5,0,1.8c0.1,0.4,0.7,4.3,0.6,4.6
	c-0.2,0.6-0.6,1.2-0.7,1.8c0,0.2,0,0.3,0,0.5l0.1,0.2c0,0.2,0,0.4-0.1,0.6c0,0.2,0.2,1.1-0.2,1c-0.4,0-0.6-0.6-0.9-0.8
	c0,0,0-0.1,0,0c-0.4-0.3-0.8-0.8-1.3-0.5c0,0.9,0.3,1.8,0.8,2.6l0.1,0.1c0.1,0.7,0.7,1.5,1.1,2.1c0,0,0.1,0.2,0.1,0.2
	c0.3,0.5,0.6,2.1,0.8,2.3c0.6,0.9,2.7,1.7,2.9,1.9c0.1,0,0.1,0,0.2,0v-0.1c0.4,0,0.5-0.3,0.7-0.6c1.1-1.3,0.6-2,0.6-3.5
	c0-0.9,0.4-1.6,0.3-2.5c-0.1-0.4-0.7-2-0.1-2.2c0-0.3,0-1.8-0.2-1.9c0.3-1.1,0.2-1.9,0.1-3.1c-0.1-0.8,0.1-1.7,0-2.6
	c-0.2-1.9-0.1-3.8-0.2-5.8c0-0.9-0.2-1.7-0.1-2.6C128.1,14.4,127.8,12.9,127.8,12.4 M194.8,32.7c-0.1-0.2-0.4-0.2-0.5-0.3
	c-0.1,0,0,0-0.1-0.1c-0.1-0.3-0.3-0.3-0.6-0.5c-0.1,0,0-0.4,0-0.4c0.1-0.4,0.7-1.8,0.7-2.1c0-0.3,0.1-0.9,0.1-1.1c0-0.1,0-0.7,0-0.9
	c0.1-0.2,0-0.8,0-1c0-0.1-0.5-0.6-0.6-0.7c-0.2-0.2-0.5-0.9-0.6-1c-0.2-0.2-0.5-0.4-0.8-0.6c-0.1-0.1-0.2-0.2-0.3-0.3
	c-0.2-0.1-0.6-0.2-0.8-0.2c-0.3,0-0.6,0.1-0.8,0.1c-0.2,0-0.3-0.2-0.5-0.2l-0.8,0.5c-0.3,0.2-0.5,0.4-0.8,0.6
	c-0.2,0.1-2.6,1.3-3.2,1.6c-0.3,0.2-0.6,0-0.9,0.2c-0.6,0-0.6-0.2-0.9-0.6c-0.1-0.1-0.2-0.2-0.3-0.3c-0.1-0.2-0.1-0.4-0.2-0.5
	c-0.4-0.3-0.9-0.3-1.3-0.5c-0.2-0.1-0.3-0.3-0.4-0.5l-0.2-0.2c-0.1-0.1-0.2,0-0.3,0.1c0,0.4-0.2,1.2-0.2,1.3c0,0.3-0.1,0.7-0.1,1
	c0.1,0.5,0.3,1,0.3,1.4c0,0.2-0.1,1.2,0,1.5c0,0.1,0.1,1.4,0.1,1.7c0,0.3-0.1,0.9-0.1,1.2c0,0.5,0.3,1.4,0.3,1.5
	c0.1,0.1,0.2,0.7,0.3,0.9l0.1,0.3c0.1,0.5-0.1,0.4,0,0.8c0,0.2,0.2,0.5,0.5,0.6c0.2,0.1,0.4,0,0.6,0.1c0.2,0.1,0.7,0.4,0.8,0.4
	c0.2,0.1,0.3,0.6,0.6,0.5c0.2,0,0.2-0.4,0.2-0.6c0.1-0.3,0.3-0.5,0.4-0.7c0.1-0.2,0-0.5,0.1-0.7l0.2-0.8c0.1-0.4,0.1-0.2,0.1-0.6
	c0.1-0.2,0.1-1.2,0.2-1.5c0.1-0.2,0.2-1,0.2-1.3c0-0.3-0.3-0.5-0.4-0.9c-0.1-0.2,0.1-0.4,0-0.6c0-0.2-0.1-0.4,0-0.5
	c0-0.1,0.1,0,0.1,0c0.5,0.1,1,0.2,1.5,0c0.2-0.1,0.4-0.5,0.6-0.6c0.2-0.2,1.1-0.9,1.5-1c0,0,0.2,0.3,0.2,0.3
	c0.2,0.5,0.2,0.9,0.1,1.4c0,0.3-1.1,1.3-1.1,1.4c-0.5,0.5-1.1,0.9-1.3,1.5c0.1,0-0.1,0.1-0.2,0.2l-0.1,0.4c0,0.2-0.2,1.6,0,2
	c0.2,0.3,0.6,0.4,0.9,0.6c0.2,0.1,0.3,0.3,0.5,0.4c0.2,0.1,1.3,0.1,1.6,0.1c0.6-0.1,1.1-0.3,1.7-0.3c0.4,0,0.7,0.1,1,0.2
	c0.3,0,1.1,0,1.3,0c0.2-0.1,0.4-0.2,0.6-0.3c0.1-0.1,0.3-0.1,0.4-0.2c0.2-0.1,0.3-0.2,0.4-0.4c0.1-0.2,0-0.4,0-0.6
	C194.8,33.6,195,32.9,194.8,32.7 M184.2,17.8c-0.2,0-0.8,0.2-0.8,0.2l-0.1,0.2c-0.1,0.1,0,0.3,0,0.4c0.1,0.3,0.7,1.2,0.9,1.4
	c0.2,0.2,0.8,0.7,0.9,0.8c0.2,0.2,0.5,0.3,0.7,0.4c0.3,0.1,0.7,0,1.1,0c0.1,0,0.7,0.1,0.9,0.2c0.4,0.1,0.7,0.4,1.1,0.5
	c0.2,0.1,0.5-0.1,0.8-0.1c0.2,0,0.4,0,0.6,0c0.2-0.1,0.3-0.2,0.5-0.2c0.2-0.1,0.4-0.1,0.6-0.2c0.3-0.2,0.8-1,0.9-1.3
	c0-0.2-0.1-0.4,0-0.6c0.1-0.1,0.2-0.3,0.3-0.3c0.1-0.1,0.3-0.1,0.3-0.2c0.1-0.2-0.1-0.5,0-0.7c0-0.2-1-0.3-1.2-0.3
	c-0.3,0-0.5,0.1-0.8,0.1c-0.7-0.2-1.3-0.4-2-0.5c-0.4,0-0.7,0-1.1,0c0,0-1.9,0.1-2.4,0.2l-0.3,0C184.9,17.7,184.3,17.7,184.2,17.8
	 M192,13.3c-0.1-0.2-0.5-0.2-0.7-0.3c-0.2-0.1-0.3-0.3-0.4-0.4c-0.2-0.2-0.6-0.3-0.9-0.2c-0.2,0-0.5,0-0.6,0c-0.2,0-0.9-0.1-1-0.2
	c-0.4-0.1-0.9-0.1-1.3,0l-1.1,0.3c-0.1,0-0.3,0.1-0.4,0.2c-0.2,0-0.5,0.1-0.6,0.2c-0.2,0-0.3,0.1-0.3,0.3c-0.2,0.5,0.2,1,0.7,1.1
	c0.2,0,1.1,0.6,1.3,0.7l0.3,0.3l0.3,0.1c0.4,0.2,1.4,0.7,1.5,0.7l0.8,0.2l1.3,0c0.3,0,0.4,0.3,0.8,0.1c0.3-0.1,0.5-0.8,0.6-1
	c0.1-0.1,0.1-0.2,0.3-0.3c0-0.1,0-0.8,0.1-0.9c0-0.3-0.2-0.3-0.4-0.4C192.2,13.9,192.1,13.4,192,13.3 M177.3,18.1
	c-0.1-0.1-0.2-0.2-0.3-0.3l-0.3-0.3c-0.2-0.1-0.4-0.2-0.6-0.3c-0.3-0.2-0.6-0.4-1-0.4c-0.2,0-0.4,0.1-0.7,0.1c0-0.5,0.3-0.8,0.4-1.2
	c0.1-0.3,0-0.7,0-1c0-0.2,0.1-0.4,0.2-0.5c0.1-1.1-0.7-2.1-1.1-3l-0.1-0.4c-0.1-0.3-0.2-0.6-0.4-0.9c-0.2-0.3-0.4-0.6-0.8-0.7
	c-0.1,0.2-0.2,0.4-0.2,0.6v0.3c-0.1,0.5-0.4,1.2-0.4,1.8c-0.2,0.2-0.6,1-0.7,1.2l-0.1,0.4l-0.2,0.4c-0.2,0.4-0.3,0.9-0.5,1.3
	l-0.8,1.6l-0.2,0.5l-0.5,0.6c-0.2,0.2-0.2,0.4-0.4,0.6l-0.4,0.6c-0.1,0.2-0.2,0.5-0.2,0.8c-0.1,0.3-0.2,0.6-0.2,0.9l0,0.8
	c0,0.4-0.1,0.9,0.1,1.2c0.1,0.1,0.2,0.1,0.3,0.2c0.2,0.1,0.3,0.3,0.4,0.5c0.1,0.3,0.1,0.7,0.1,1.1l0,0.6l-0.1,0.6
	c0.1-0.1,0.1-0.2,0.2-0.2l0.1-0.4v-0.1h0.1c0,0.1,0,0.1,0,0.1c0,0.1,0,0.2-0.1,0.2l0,0.1h0.1c0-0.1,0.1-0.2,0.2-0.3
	c0.1-0.3,0.1-0.7,0.3-1l0.6-0.6l0.3-0.2c0.3-0.3,0.5-0.6,0.9-0.9l0.5-0.4c0.2-0.2,0.6-0.7,0.8-0.8c0.5-0.1,0.9,0.3,1,0.7l0.1,0.8
	c0.1,0.5,0.2,1,0.2,1.6c0,0.2,0.1,1.5,0,2c0,0.4-0.2,0.8-0.3,1.1c0,0.2-0.2,1.9-0.2,2.1c0,0.1-0.2,0.7-0.3,0.9
	c-0.1,0.3-0.4,1.9-0.4,2.4l-0.1,0.6l0,1.1l0,0.9c0,0.6,0.4,1.1,1.1,1.2c0-0.2,0.3-0.4,0.5-0.6c0,0.1,0.8,0,0.5-0.3l0-0.4
	c0.1-0.4,0.8-0.4,0.8-0.4c0-0.2,0.4-0.6,0.5-0.8c0.1-0.3,0.2-1.4,0.2-1.6l0.1-1.1c0-0.4,0-0.7,0-1.1c0.1-0.4,0.1-0.8,0.2-1.2
	c0-0.3,0.2-2.1,0.3-2.4c0.1-0.2,0.2-1.3,0.2-1.4c0-0.3,0.1-1.6,0.1-1.8c0.1-0.5,0.1-0.9,0.1-1.4c0.1-0.5-0.1-1-0.1-1.5
	c0-0.3,0.2-0.5,0.3-0.7c0.1-0.3,0.2-0.8,0.1-1.1C177.4,18.4,177.4,18.2,177.3,18.1 M196.1,7.9c-0.4-0.6-1.7-0.2-2.3-0.3
	c-0.6,0-1.2-0.1-1.8,0c-0.2,0-0.7,0-0.6-0.3c0-0.2,0.1-0.3,0.1-0.5c0-0.2-0.2-0.8-0.1-0.8c0-0.1,0.1-0.8,0-1
	c-0.2-0.2-0.5-0.4-0.7-0.5c-0.1,0-0.3,0-0.4-0.1L189.7,4c-0.2-0.1-0.3-0.1-0.5-0.2c-0.2-0.1-0.4-0.1-0.6-0.2
	c-0.1-0.1-0.6-0.3-0.8-0.4c-0.3-0.1-0.5-0.2-0.8-0.2c-0.1,0-0.3,0-0.4,0.1c-0.2,0.1-0.5,0.9-0.6,1.1c0,0,0,0.1-0.1,0.1
	c-0.1,0-0.2-0.1-0.4-0.1c-0.2,0-0.6,0.4-0.5,0.3l0,0.1c-0.1,0-0.2,0.1-0.3,0.1c-0.4,0.2-1.4,1.2-0.9,0.9c0,0,0.1,0,0.1,0
	c-0.1,0-0.2,0.1-0.2,0.1c-0.3,0.1-0.6,0.3-1,0.4c0,0.1-0.1,0.2-0.1,0.3c0.1,0,0.1,0.1,0.2,0.1c0.4,0,0.9-0.3,0.9-0.7
	c0.1,0,0.2,0,0.4,0.1l0.3-0.1c0.3-0.1,0.9-0.2,1.2-0.1c0,0.3-0.9,0.2-1.1,0.2c0,0-0.6,0.3-0.6,0.3c0,0.1,0.3,0.2,0.4,0.2
	c0.4,0.1,0.8,0.1,1.2,0.1c0.5,0.1,1.3,0.8,1.6,1.2c0,0.1-0.2,0.2-0.5,0.6l-0.4,0.2l-0.5,0.1c-0.3,0-1.6,0.3-1.8,0.3
	c-0.2,0-1.2,0.1-1.4,0.1c-0.3,0.1-0.8,0.2-1.1,0.3c-0.2,0-0.8,0.1-1.1,0.2c-0.3,0-0.8,0-1.2,0.1c-0.3,0.1-1,0.3-1.1,0.3
	c0,0-0.5,0.3-0.5,0.3c0,0-0.1,0-0.1,0c0-0.1-0.1-0.2-0.1-0.2c-0.1,0-0.2,0.2-0.3,0.3c-0.1,0.2-0.1,0.3-0.1,0.5
	c0,0.7,0.4,0.6,0.9,0.8c0.2,0.1,0.4,0.2,0.6,0.2c0.4,0,1-0.3,1.4-0.4c0.4-0.2,0.9-0.2,1.4-0.3l1.3-0.4c0.7-0.2,1.4-0.3,2.1-0.3
	c0.9,0,2,0,2.9-0.1c0.2,0,2.8,0,3.1,0c0.3,0,0.6,0,0.9,0c0.4,0,1.5-0.3,1.7-0.3c0.3,0,0.6,0.2,1,0.1c0.1,0,0.7-0.2,0.8-0.2
	c0.1,0,0.1-0.3,0.1-0.3c0.1-0.2-0.1-0.5,0-0.7c0.1-0.1,0.3-0.2,0.4-0.2C195.9,8.7,196.4,8.3,196.1,7.9"/>
</svg>
